<svg xmlns="http://www.w3.org/2000/svg" version="1.0" width="512.000000pt" height="512.000000pt" viewBox="0 0 512.000000 512.000000" preserveAspectRatio="xMidYMid meet">

<g transform="translate(0.000000,512.000000) scale(0.100000,-0.100000)" fill="#25805e" stroke="none">
<path d="M2370 5114 c-560 -53 -1046 -252 -1460 -600 -831 -698 -1131 -1869 -736 -2878 44 -112 83 -196 90 -196 5 0 236 113 253 123 8 5 2 28 -22 80 -74 162 -140 386 -171 587 -25 157 -25 491 -1 645 103 662 446 1204 989 1565 564 375 1229 475 1890 284 134 -38 138 -39 138 -21 0 21 60 139 96 190 19 26 32 52 29 57 -16 26 -366 117 -557 145 -101 15 -448 27 -538 19z" fill="#25805e"/>
<path d="M3897 4891 c-159 -52 -267 -180 -297 -350 -24 -134 25 -275 129 -375 216 -206 556 -146 688 121 33 67 38 86 41 167 3 74 0 103 -17 154 -41 122 -115 205 -229 260 -64 30 -85 35 -165 39 -72 2 -105 -1 -150 -16z" fill="#25805e"/>
<path d="M2265 3866 c-285 -56 -508 -267 -571 -541 -9 -38 -17 -75 -19 -81 -2 -6 -26 -14 -55 -18 -79 -11 -213 -63 -293 -115 -252 -165 -394 -464 -359 -755 40 -325 253 -577 572 -678 l75 -23 1025 0 1025 0 67 26 c197 77 333 216 395 403 22 67 26 100 26 191 1 97 -3 120 -29 195 -67 190 -203 329 -390 397 -37 13 -93 26 -126 30 -42 4 -61 11 -65 22 -3 9 -21 49 -40 90 -64 134 -199 245 -351 287 -60 17 -63 19 -73 58 -19 73 -86 200 -143 268 -158 190 -433 290 -671 244z" fill="#25805e"/>
<path d="M4665 3750 c-66 -38 -124 -71 -128 -72 -4 -2 19 -60 52 -128 160 -331 225 -616 225 -985 1 -231 -12 -341 -63 -550 -205 -839 -895 -1500 -1743 -1669 -418 -84 -885 -44 -1261 107 l-85 35 -31 -63 c-17 -35 -54 -92 -81 -126 l-50 -64 63 -29 c159 -74 418 -146 657 -183 173 -26 527 -24 715 5 278 43 502 115 760 242 489 241 879 622 1129 1101 386 740 393 1595 20 2342 -30 59 -55 107 -57 106 -1 0 -56 -31 -122 -69z" fill="#25805e"/>
<path d="M869 1162 c-122 -32 -225 -120 -282 -240 -30 -63 -32 -74 -32 -182 0 -109 2 -118 32 -181 119 -242 414 -322 637 -174 56 37 117 107 149 170 26 52 39 117 39 196 -1 123 -49 228 -145 316 -56 52 -108 79 -189 98 -80 19 -127 18 -209 -3z" fill="#25805e"/>
</g>
</svg>